HIERARCHY
ROOT Hips
{
  OFFSET 0 0 0
  CHANNELS 6 Xposition Yposition Zposition Zrotation Yrotation Xrotation
  JOINT LeftThigh
  {
    OFFSET 8.409438 0 -5.917753
    CHANNELS 3 Zrotation Yrotation Xrotation
    JOINT LeftLeg
    {
      OFFSET 0 0 -42.358652
      CHANNELS 3 Zrotation Yrotation Xrotation
      JOINT LeftFoot
      {
        OFFSET 0 0 -39.357303
        CHANNELS 3 Zrotation Yrotation Xrotation
      }
    }
  }
  JOINT RightThigh
  {
    OFFSET -8.409438 0 -5.917753
    CHANNELS 3 Zrotation Yrotation Xrotation
    JOINT RightLeg
    {
      OFFSET 0 0 -42.358652
      CHANNELS 3 Zrotation Yrotation Xrotation
      JOINT RightFoot
      {
        OFFSET 0 0 -39.357303
        CHANNELS 3 Zrotation Yrotation Xrotation
      }
    }
  }
  JOINT SpineLow
  {
    OFFSET 0 0 4.719101
    CHANNELS 3 Zrotation Yrotation Xrotation
    JOINT SpineMid
    {
      OFFSET 0 0 12.899191
      CHANNELS 3 Zrotation Yrotation Xrotation
      JOINT Chest
      {
        OFFSET 0 0 12.899191
        CHANNELS 3 Zrotation Yrotation Xrotation
        JOINT LeftShoulder
        {
          OFFSET 7.550562 1.41573 9.438202
          CHANNELS 3 Zrotation Yrotation Xrotation
          JOINT LeftArm
          {
            OFFSET 9.155056 0 4.247191
            CHANNELS 3 Zrotation Yrotation Xrotation
            JOINT LeftForearm
            {
              OFFSET 0 0 25.771955
              CHANNELS 3 Zrotation Yrotation Xrotation
              JOINT LeftHand
              {
                OFFSET 0 0 25.197169
                CHANNELS 3 Zrotation Yrotation Xrotation
              }
            }
          }
        }
        JOINT RightShoulder
        {
          OFFSET -7.550562 1.41573 9.438202
          CHANNELS 3 Zrotation Yrotation Xrotation
          JOINT RightArm
          {
            OFFSET -9.155056 0 4.247191
            CHANNELS 3 Zrotation Yrotation Xrotation
            JOINT RightForearm
            {
              OFFSET 0 0 -25.771955
              CHANNELS 3 Zrotation Yrotation Xrotation
              JOINT RightHand
              {
                OFFSET 0 0 -25.197169
                CHANNELS 3 Zrotation Yrotation Xrotation
              }
            }
          }
        }
        JOINT Neck
        {
          OFFSET 0 0 15.101124
          CHANNELS 3 Zrotation Yrotation Xrotation
          JOINT Head
          {
            OFFSET 0 0 11.325843
            CHANNELS 3 Zrotation Yrotation Xrotation
            End Site
            {
              OFFSET 0 0 14.157303
            }
          }
        }
      }
    }
  }
}
MOTION
Frames: 10
Frame Time: 0.0
0.0  93.25843  0.0  -2.235202  32.057295  -85.932777  11.149241  -17.886659  13.045686  -2.931722  -0.384466  11.658645  1.192228  1.162507  -2.117944  -21.315648  -12.767256  -39.72263  -3.958759  18.578379  27.063174  6.0517  0.599314  4.314041  -1.588403  -0.905175  -0.122833  -4.339006  -2.481039  -0.276249  -4.339006  -2.481039  -0.276249  -20.207944  24.445739  7.475203  118.654164  42.340946  -159.087257  -19.76805  -9.474497  81.933567  9.587062  10.728149  100.974216  2.30452  -8.390575  13.113943  82.164097  69.60596  15.580962  -51.20337  -4.774202  -71.432588  108.388636  -27.694696  59.427062  -7.656396  1.0515  -0.118201  -5.741932  0.790253  -0.075487  
0.0  93.25843  0.0  -2.485999  31.780312  -85.977752  10.179545  -17.710669  13.044802  -1.847847  -0.740286  11.483058  1.1147  1.194496  -1.958715  -21.249406  -13.318913  -39.711384  -3.854097  18.557116  27.264378  6.080866  0.691606  4.344226  -1.594961  -0.926682  -0.130954  -4.356609  -2.540355  -0.296786  -4.356609  -2.540355  -0.296786  -20.586245  24.162711  7.035298  116.90617  41.829415  -159.971441  -20.920969  -10.430946  80.877702  10.499142  10.008919  101.979053  1.274691  -8.19737  12.456522  84.09086  68.410063  16.426502  -51.324298  -4.611652  -71.258105  107.55158  -27.386475  60.004091  -7.584218  1.047821  -0.123321  -5.687793  0.78754  -0.079497  
0.0  93.25843  0.0  -2.700542  31.588584  -85.958367  9.885757  -17.776399  13.532876  -1.348301  -1.038474  10.67314  1.053161  1.147103  -1.873188  -21.246172  -13.914966  -39.676586  -3.758294  18.631089  27.430704  6.025014  0.767254  4.315586  -1.579521  -0.950141  -0.154971  -4.31341  -2.605954  -0.3615  -4.31341  -2.605954  -0.3615  -20.830901  23.978562  6.812389  116.691428  41.379709  -160.659492  -20.86392  -11.006635  80.709549  10.918228  8.989145  103.040795  1.114214  -8.25295  12.423152  84.340341  67.870616  16.742354  -51.35621  -4.542728  -71.225033  106.79532  -26.969929  60.610404  -7.569996  1.077717  -0.052866  -5.677236  0.80909  -0.026302  
0.0  93.25843  0.0  -2.868958  31.110212  -86.02669  9.524171  -17.668403  14.094937  -0.93484  -1.422244  9.755015  1.245279  1.18575  -1.578698  -20.94883  -14.371901  -39.505165  -3.745952  18.742168  27.59257  5.989576  0.832853  4.262187  -1.590918  -0.955  -0.187467  -4.343276  -2.621415  -0.449554  -4.343276  -2.621415  -0.449554  -20.585808  23.892656  6.872419  115.083199  41.155608  -161.344511  -21.72364  -12.39412  79.786656  10.944699  7.872089  104.038292  1.216227  -8.377848  12.589282  84.373328  67.245832  16.789367  -51.229415  -4.675193  -71.332601  106.183131  -26.347637  61.17051  -7.422297  1.116916  0.097903  -5.566725  0.836644  0.087007  
0.0  93.25843  0.0  -3.001742  30.733428  -86.01941  9.298225  -17.574788  14.721688  -0.333742  -1.827881  8.946141  1.210027  1.195397  -1.436332  -20.71762  -14.75222  -39.349611  -3.914518  18.868382  27.716641  6.02694  0.905636  4.15543  -1.567288  -0.977804  -0.214097  -4.277494  -2.685293  -0.521819  -4.277494  -2.685293  -0.521819  -20.60303  23.881637  6.780323  115.058939  40.969178  -161.801385  -21.634513  -13.065825  79.582447  10.847571  6.791022  104.9116  1.126556  -8.436336  12.616932  84.050326  66.537606  16.592866  -50.936678  -4.912065  -71.544353  105.663759  -25.593183  61.74984  -7.315694  1.193717  0.225603  -5.487013  0.892739  0.18352  
0.0  93.25843  0.0  -3.132371  30.060125  -86.024359  8.785836  -17.388359  14.9426  0.542696  -2.202333  8.533192  1.440993  1.310978  -1.042351  -20.235597  -15.054058  -39.132611  -4.160133  18.976942  27.817416  6.226115  0.996506  4.031769  -1.650809  -0.96222  -0.273796  -4.503574  -2.647378  -0.682642  -4.503574  -2.647378  -0.682642  -19.492432  23.753652  7.061193  113.880785  40.918918  -162.242272  -22.413776  -14.061336  78.732267  10.764764  5.826071  105.612516  1.927273  -8.723256  12.856791  82.557922  66.314619  16.238635  -50.039718  -5.925219  -71.957908  104.997802  -24.72388  62.155511  -6.901753  1.235124  0.438477  -5.177003  0.921531  0.342848  
0.0  93.25843  0.0  -3.210867  29.524246  -85.915037  8.698258  -17.252679  15.470977  1.311019  -2.573779  7.883255  1.358844  1.347642  -0.897541  -19.900713  -15.350613  -38.923729  -4.338487  19.065755  27.894861  6.452842  1.076931  3.881558  -1.624002  -0.991468  -0.329447  -4.427761  -2.730745  -0.833893  -4.42776  -2.730745  -0.833893  -19.288611  23.789239  6.945357  114.117429  40.840592  -162.435691  -22.429529  -14.363357  78.454964  10.691799  4.922101  106.15699  2.022151  -8.704588  12.928427  82.140469  65.589439  16.010342  -49.528726  -6.052781  -72.145723  104.244664  -24.189925  62.883118  -6.712498  1.377386  0.596834  -5.035482  1.026632  0.462802  
0.0  93.25843  0.0  -3.3555  28.719372  -85.865011  8.726864  -17.169376  15.902589  2.165689  -2.912744  7.365242  1.372712  1.436677  -0.634167  -19.320232  -15.685207  -38.550341  -4.378025  19.131997  27.967131  6.6826  1.140814  3.665067  -1.676142  -0.994291  -0.413499  -4.56682  -2.744868  -1.061277  -4.56682  -2.744868  -1.061277  -18.36572  23.685556  7.021253  113.553741  40.778654  -162.652358  -23.133914  -14.993704  77.703248  10.542469  3.97952  106.627807  2.664879  -8.844268  13.18974  82.112612  64.865828  16.005209  -49.028373  -5.9273  -72.21162  103.165506  -24.03397  63.752278  -6.254491  1.521297  0.866053  -4.69276  1.132253  0.665158  
0.0  93.25843  0.0  -3.432815  28.156799  -85.771819  8.659734  -17.110888  16.436544  2.994802  -3.203103  6.876627  1.168647  1.459895  -0.528699  -19.028391  -16.010876  -38.032549  -4.204934  19.144748  27.978704  6.854016  1.151221  3.363387  -1.651995  -1.027779  -0.473768  -4.497769  -2.840072  -1.22478  -4.497769  -2.840072  -1.22478  -18.13565  23.685955  6.813801  114.077256  40.828406  -162.676592  -23.067598  -15.181752  77.466641  10.118281  2.793113  107.118527  2.833777  -8.772356  13.308921  82.158899  64.381217  16.245701  -48.61813  -5.449492  -72.110775  101.659539  -24.340463  64.89501  -6.039893  1.674458  1.021636  -4.532412  1.245895  0.782816  
0.0  93.25843  0.0  -3.791326  27.087637  -85.940112  9.097795  -17.371318  17.071646  3.681248  -3.422663  6.485423  1.003569  1.527023  -0.475004  -18.411378  -16.545435  -37.193307  -3.934601  19.149362  27.999143  7.125602  1.11622  2.987029  -1.590824  -1.079695  -0.50798  -4.328154  -2.983049  -1.317607  -4.328154  -2.983049  -1.317607  -17.857037  23.569742  6.584685  114.914122  40.984265  -162.528977  -22.873979  -15.554994  77.217892  9.283903  1.282061  107.656318  3.08141  -8.758309  13.365218  82.72933  63.885042  16.831413  -48.287303  -4.614506  -71.85772  99.649983  -25.004301  66.276027  -5.682278  1.753222  1.192748  -4.264817  1.303967  0.91089  
